<svg width="24" height="24" viewBox="0 0 24 24" fill="none" xmlns="http://www.w3.org/2000/svg">
<path d="M11.157 13.6V11.2H12.843V13.6H17.058C17.2815 13.6 17.496 13.6843 17.654 13.8343C17.8121 13.9843 17.9009 14.1878 17.9009 14.4V19.2C17.9009 19.4122 17.8121 19.6157 17.654 19.7657C17.496 19.9157 17.2815 20 17.058 20H6.94204C6.71847 20 6.50405 19.9157 6.34596 19.7657C6.18787 19.6157 6.09905 19.4122 6.09905 19.2V14.4C6.09905 14.1878 6.18787 13.9843 6.34596 13.8343C6.50405 13.6843 6.71847 13.6 6.94204 13.6H11.157ZM4 9.4696C5.11697 6.2912 8.27734 4 12 4C15.7227 4 18.8839 6.2912 20 9.4696L18.4 9.9752C17.9521 8.70059 17.093 7.592 15.9444 6.80644C14.7958 6.02088 13.4158 5.59817 12 5.59817C10.5842 5.59817 9.20424 6.02088 8.05561 6.80644C6.90698 7.592 6.04789 8.70059 5.6 9.9752L4.00084 9.4696H4ZM7.2 10.4816C7.53623 9.52593 8.18067 8.69482 9.0421 8.10591C9.90354 7.517 10.9383 7.20012 12 7.20012C13.0617 7.20012 14.0965 7.517 14.9579 8.10591C15.8193 8.69482 16.4638 9.52593 16.8 10.4816L15.2 10.988C14.9758 10.3509 14.5462 9.79681 13.9719 9.40421C13.3976 9.0116 12.7078 8.80035 12 8.80035C11.2922 8.80035 10.6024 9.0116 10.0281 9.40421C9.45378 9.79681 9.02416 10.3509 8.8 10.988L7.2 10.4816ZM7.78504 15.2V18.4H16.215V15.2H7.78504Z" fill="white"/>
<rect x="0.5" y="0.5" width="23" height="23" rx="11.5" stroke="white"/>
</svg>
