<svg width="20" height="27" viewBox="0 0 20 27" fill="none" xmlns="http://www.w3.org/2000/svg">
<path d="M11 18.3333V7.66665C11 6.60578 10.6839 5.58837 10.1213 4.83822C9.55871 4.08808 8.79565 3.66665 8 3.66665H5.83C5.59409 2.77666 5.1298 2.02652 4.51919 1.54883C3.90858 1.07115 3.19098 0.896666 2.49321 1.05623C1.79545 1.2158 1.16246 1.69914 0.706126 2.42082C0.249797 3.1425 -0.000488281 4.05604 -0.000488281 4.99998C-0.000488281 5.94392 0.249797 6.85747 0.706126 7.57914C1.16246 8.30082 1.79545 8.78416 2.49321 8.94373C3.19098 9.1033 3.90858 8.92882 4.51919 8.45113C5.1298 7.97344 5.59409 7.2233 5.83 6.33331H8C8.26522 6.33331 8.51957 6.47379 8.70711 6.72384C8.89464 6.97388 9 7.31302 9 7.66665V18.3333C9 19.3942 9.31607 20.4116 9.87868 21.1617C10.4413 21.9119 11.2044 22.3333 12 22.3333H15V26.3333L20 21L15 15.6666V19.6666H12C11.7348 19.6666 11.4804 19.5262 11.2929 19.2761C11.1054 19.0261 11 18.6869 11 18.3333Z" fill="white"/>
</svg>
