<svg width="25" height="24" viewBox="0 0 25 24" fill="none" xmlns="http://www.w3.org/2000/svg">
<path d="M1.50008 9.99883C1.23484 9.99883 0.98047 9.89347 0.792918 9.70592C0.605366 9.51836 0.5 9.26399 0.5 8.99875V1.00008C0.5 0.734845 0.605366 0.48047 0.792918 0.292918C0.98047 0.105366 1.23484 0 1.50008 0H9.50075C9.76599 0 10.0204 0.105366 10.2079 0.292918C10.3955 0.48047 10.5008 0.734845 10.5008 1.00008V8.99875C10.5008 9.26399 10.3955 9.51836 10.2079 9.70592C10.0204 9.89347 9.76599 9.99883 9.50075 9.99883H1.50008ZM15.5013 9.99883C15.236 9.99883 14.9816 9.89347 14.7941 9.70592C14.6065 9.51836 14.5012 9.26399 14.5012 8.99875V1.00008C14.5012 0.734845 14.6065 0.48047 14.7941 0.292918C14.9816 0.105366 15.236 0 15.5013 0H23.4999C23.7652 0 24.0195 0.105366 24.2071 0.292918C24.3946 0.48047 24.5 0.734845 24.5 1.00008V8.99875C24.5 9.26399 24.3946 9.51836 24.2071 9.70592C24.0195 9.89347 23.7652 9.99883 23.4999 9.99883H15.5013ZM1.50008 24C1.23484 24 0.98047 23.8946 0.792918 23.7071C0.605366 23.5195 0.5 23.2652 0.5 22.9999V14.9992C0.5 14.734 0.605366 14.4796 0.792918 14.2921C0.98047 14.1045 1.23484 13.9992 1.50008 13.9992H9.50075C9.76599 13.9992 10.0204 14.1045 10.2079 14.2921C10.3955 14.4796 10.5008 14.734 10.5008 14.9992V22.9999C10.5008 23.2652 10.3955 23.5195 10.2079 23.7071C10.0204 23.8946 9.76599 24 9.50075 24H1.50008ZM15.5013 24C15.236 24 14.9816 23.8946 14.7941 23.7071C14.6065 23.5195 14.5012 23.2652 14.5012 22.9999V14.9992C14.5012 14.734 14.6065 14.4796 14.7941 14.2921C14.9816 14.1045 15.236 13.9992 15.5013 13.9992H23.4999C23.7652 13.9992 24.0195 14.1045 24.2071 14.2921C24.3946 14.4796 24.5 14.734 24.5 14.9992V22.9999C24.5 23.2652 24.3946 23.5195 24.2071 23.7071C24.0195 23.8946 23.7652 24 23.4999 24H15.5013Z" fill="#868B91"/>
</svg>
