<svg width="40" height="41" viewBox="0 0 40 41" fill="none" xmlns="http://www.w3.org/2000/svg">
<circle cx="20" cy="20.1636" r="18" stroke="url(#paint0_linear_53_3348)" stroke-width="4"/>
<path d="M19.157 21.6V19.2H20.843V21.6H25.058C25.2815 21.6 25.496 21.6843 25.654 21.8343C25.8121 21.9843 25.9009 22.1878 25.9009 22.4V27.2C25.9009 27.4122 25.8121 27.6157 25.654 27.7657C25.496 27.9157 25.2815 28 25.058 28H14.942C14.7185 28 14.5041 27.9157 14.346 27.7657C14.1879 27.6157 14.0991 27.4122 14.0991 27.2V22.4C14.0991 22.1878 14.1879 21.9843 14.346 21.8343C14.5041 21.6843 14.7185 21.6 14.942 21.6H19.157ZM12 17.4696C13.117 14.2912 16.2773 12 20 12C23.7227 12 26.8839 14.2912 28 17.4696L26.4 17.9752C25.9521 16.7006 25.093 15.592 23.9444 14.8064C22.7958 14.0209 21.4158 13.5982 20 13.5982C18.5842 13.5982 17.2042 14.0209 16.0556 14.8064C14.907 15.592 14.0479 16.7006 13.6 17.9752L12.0008 17.4696H12ZM15.2 18.4816C15.5362 17.5259 16.1807 16.6948 17.0421 16.1059C17.9035 15.517 18.9383 15.2001 20 15.2001C21.0617 15.2001 22.0965 15.517 22.9579 16.1059C23.8193 16.6948 24.4638 17.5259 24.8 18.4816L23.2 18.988C22.9758 18.3509 22.5462 17.7968 21.9719 17.4042C21.3976 17.0116 20.7078 16.8003 20 16.8003C19.2922 16.8003 18.6024 17.0116 18.0281 17.4042C17.4538 17.7968 17.0242 18.3509 16.8 18.988L15.2 18.4816ZM15.785 23.2V26.4H24.215V23.2H15.785Z" fill="white"/>
<defs>
<linearGradient id="paint0_linear_53_3348" x1="4.5" y1="12" x2="35" y2="34" gradientUnits="userSpaceOnUse">
<stop stop-color="#4D4D4D"/>
<stop offset="0.972385" stop-color="#868686"/>
</linearGradient>
</defs>
</svg>
